<?xml version="1.0" encoding="utf-8"?>
<!-- Generator: Adobe Illustrator 26.0.2, SVG Export Plug-In . SVG Version: 6.00 Build 0)  -->
<svg version="1.1" id="Layer_1" xmlns="http://www.w3.org/2000/svg" xmlns:xlink="http://www.w3.org/1999/xlink" x="0px" y="0px"
	 viewBox="0 0 554.2 295.1" style="enable-background:new 0 0 554.2 295.1;" xml:space="preserve">
<style type="text/css">
	.st0{fill:#A23238;}
	.st1{fill:#FDFDFE;}
</style>
<g id="Group_968">
	<rect id="Rectangle_141" y="0" class="st0" width="554.2" height="295.1"/>
	<g id="Prison_Reform_Trust">
		<g>
			<path class="st1" d="M28.1,104h15.7c2.9-0.1,5.8,0.3,8.6,1.1c2,0.6,3.8,1.6,5.3,3c1.3,1.2,2.2,2.7,2.7,4.4
				c0.5,1.7,0.8,3.5,0.8,5.4c0,1.9-0.3,3.8-0.8,5.6c-0.5,1.8-1.4,3.4-2.8,4.8c-1.5,1.5-3.3,2.6-5.3,3.2c-2.7,0.9-5.6,1.3-8.5,1.2
				h-9.7v18.2h-6L28.1,104z M43.8,127.6c1.9,0,3.8-0.2,5.6-0.7c1.3-0.3,2.5-1,3.5-1.9c0.8-0.8,1.4-1.9,1.7-3
				c0.3-1.3,0.5-2.6,0.5-3.9c0-1.3-0.2-2.7-0.5-3.9c-0.3-1.1-1-2.1-1.8-2.8c-1-0.8-2.2-1.4-3.5-1.7c-1.8-0.4-3.7-0.6-5.5-0.6h-9.6
				v18.4L43.8,127.6z"/>
			<path class="st1" d="M69.2,104h15.3c2.9-0.1,5.8,0.3,8.6,1.2c2,0.6,3.8,1.7,5.3,3c1.2,1.2,2.2,2.6,2.7,4.2
				c0.5,1.6,0.7,3.2,0.7,4.8c0.1,2.7-0.6,5.3-1.9,7.6c-1.4,2.3-3.6,4-6.1,4.9l9.8,21h-6.8L88,131.2c-0.6,0.1-1.2,0.1-1.8,0.2h-1.8
				h-9.2v19.4h-6L69.2,104z M85.1,126.3c1.7,0,3.5-0.2,5.2-0.6c1.2-0.3,2.3-0.9,3.2-1.8c0.8-0.8,1.4-1.7,1.6-2.8
				c0.3-1.2,0.5-2.4,0.5-3.7c0-1.2-0.2-2.4-0.5-3.5c-0.4-1-1-1.9-1.8-2.6c-1-0.8-2.2-1.4-3.4-1.6c-1.8-0.4-3.7-0.6-5.5-0.6h-9.2
				v17.1H85.1z"/>
			<path class="st1" d="M110.6,104h6v46.8h-6V104z"/>
			<path class="st1" d="M130.5,137.5c0.5,3.3,1.8,5.6,3.9,7.1c2.1,1.5,5.2,2.2,9.3,2.2c1.7,0,3.5-0.2,5.1-0.7c1.2-0.4,2.4-1,3.3-1.8
				c0.8-0.7,1.4-1.7,1.8-2.7c0.4-1,0.5-2.1,0.5-3.2c0-0.9-0.1-1.8-0.3-2.6c-0.2-0.9-0.7-1.7-1.3-2.3c-0.7-0.8-1.6-1.4-2.6-1.8
				c-1.4-0.6-2.8-1-4.3-1.2l-5.9-1c-2.1-0.3-4.2-0.9-6.2-1.6c-1.7-0.6-3.2-1.4-4.6-2.5c-1.2-1-2.2-2.3-2.8-3.8c-0.7-1.8-1-3.7-1-5.6
				c0-2,0.4-3.9,1.3-5.6c0.9-1.6,2.1-3,3.6-4.1c1.6-1.2,3.5-2,5.5-2.4c2.2-0.5,4.5-0.8,6.8-0.8c2.6-0.1,5.2,0.3,7.8,1
				c1.9,0.6,3.6,1.5,5.1,2.7c1.3,1.1,2.3,2.4,3,3.9c0.7,1.4,1.2,3,1.5,4.5l-5.6,1.1c-0.3-1.2-0.8-2.4-1.3-3.5
				c-0.5-1-1.3-1.9-2.2-2.5c-1-0.7-2.1-1.3-3.3-1.5c-1.6-0.4-3.2-0.6-4.8-0.5c-1.8,0-3.6,0.2-5.4,0.6c-1.3,0.3-2.4,0.9-3.5,1.6
				c-0.8,0.6-1.5,1.5-1.9,2.4c-0.4,1-0.6,2-0.6,3c0,1,0.1,2,0.4,3c0.3,0.9,0.8,1.6,1.5,2.2c0.8,0.7,1.7,1.2,2.6,1.5
				c1.3,0.5,2.7,0.8,4.1,1.1l6.6,1.2c4.9,0.9,8.4,2.4,10.7,4.6s3.4,5.2,3.4,9.3c0,1.8-0.4,3.6-1.1,5.3c-0.7,1.7-1.8,3.1-3.2,4.3
				c-1.6,1.3-3.4,2.3-5.3,2.9c-2.4,0.7-5,1.1-7.5,1c-2.5,0-5-0.2-7.5-0.8c-2.1-0.5-4.1-1.4-5.9-2.6c-1.7-1.2-3-2.7-4-4.5
				c-1.1-2-1.7-4.3-1.8-6.6L130.5,137.5z"/>
			<path class="st1" d="M188.2,152c-3,0-6-0.5-8.8-1.6c-2.6-1-4.9-2.7-6.8-4.7c-2-2.2-3.5-4.9-4.4-7.7c-1.1-3.4-1.6-6.9-1.6-10.5
				c-0.1-3.6,0.5-7.1,1.6-10.5c1-2.9,2.5-5.5,4.5-7.7c1.9-2.1,4.2-3.7,6.8-4.8c2.8-1.1,5.7-1.7,8.7-1.6c3,0,6,0.5,8.8,1.6
				c2.6,1,4.9,2.7,6.8,4.7c2,2.2,3.5,4.8,4.4,7.7c1.1,3.4,1.6,6.9,1.6,10.5c0.1,3.6-0.5,7.1-1.5,10.5c-0.9,2.9-2.4,5.5-4.4,7.8
				c-1.9,2.1-4.2,3.7-6.8,4.8C194.2,151.5,191.2,152.1,188.2,152z M188.2,146.8c2.3,0,4.5-0.4,6.6-1.4c1.9-0.9,3.5-2.2,4.8-3.9
				c1.3-1.8,2.3-3.9,2.9-6.1c1.3-5.2,1.3-10.7,0-15.9c-0.6-2.2-1.6-4.3-2.9-6.1c-1.2-1.7-2.9-3-4.8-3.9c-2.1-1-4.3-1.4-6.6-1.4
				c-2.3-0.1-4.6,0.4-6.7,1.4c-1.9,0.9-3.5,2.3-4.8,3.9c-1.4,1.8-2.3,3.9-2.9,6.1c-1.3,5.2-1.3,10.7,0,15.9c0.5,2.2,1.5,4.3,2.8,6.1
				c1.2,1.7,2.9,3,4.8,3.9C183.6,146.4,185.9,146.8,188.2,146.8z"/>
			<path class="st1" d="M218.4,104h6l23.8,37.2V104h5.8v46.8h-5.8l-24-37v37h-5.8L218.4,104z"/>
		</g>
		<g>
			<path class="st1" d="M27.7,163h16.6c3.1-0.1,6.1,0.3,9.1,1.3c2.1,0.7,4,1.8,5.6,3.4c1.3,1.3,2.3,2.9,2.8,4.6
				c0.5,1.6,0.8,3.3,0.8,5c0.1,2.6-0.5,5.2-1.6,7.6c-1.3,2.2-3.2,4-5.5,5.2l9.5,19.9H54.4l-7.9-17.5h-9.2v17.6h-9.7V163z M45,184.2
				c1.3,0,2.6-0.1,3.8-0.5c0.9-0.3,1.7-0.7,2.4-1.3c0.6-0.6,1-1.3,1.2-2.1c0.2-0.9,0.3-1.8,0.3-2.8c0-0.8-0.1-1.6-0.4-2.4
				c-0.3-0.8-0.7-1.5-1.3-2c-0.8-0.7-1.7-1.1-2.6-1.4c-1.4-0.4-2.8-0.5-4.2-0.5h-6.8v13L45,184.2z"/>
			<path class="st1" d="M70.6,163h31.9v8.3H80.3v10.2h20.8v8.4H80.3v11.5h23.5l-1,8.3H70.6V163z"/>
			<path class="st1" d="M110.8,163h30.8v8.4h-21v11h19.8v8.4h-19.7v19h-9.8V163z"/>
			<path class="st1" d="M169.3,211.1c-3.2,0-6.4-0.5-9.4-1.7c-2.7-1.1-5.1-2.8-7-4.9c-2-2.3-3.5-4.9-4.4-7.7
				c-2.1-6.7-2.1-13.8,0-20.5c0.9-2.9,2.5-5.5,4.5-7.7c1.9-2.1,4.3-3.8,7-4.9c6-2.3,12.7-2.3,18.7,0c2.7,1.1,5.1,2.8,7,4.9
				c2,2.3,3.5,4.9,4.4,7.7c1.1,3.3,1.6,6.8,1.5,10.2c0,3.5-0.4,6.9-1.5,10.2c-0.9,2.9-2.4,5.5-4.3,7.7c-1.9,2.2-4.3,3.8-7,4.9
				C175.8,210.5,172.6,211.1,169.3,211.1z M169.3,202.7c4.1,0,7.2-1.4,9.2-4.2c2-2.8,3-6.8,3-12c0-5.2-1-9.2-3-12
				c-2-2.8-5.1-4.2-9.2-4.2c-4.1,0-7.2,1.4-9.2,4.2c-2,2.8-3,6.8-3,12c0,5.2,1,9.2,3,12C162.1,201.3,165.2,202.7,169.3,202.7z"/>
			<path class="st1" d="M199.6,163h16.6c3.1-0.1,6.2,0.3,9.1,1.3c2.1,0.7,4,1.8,5.6,3.4c1.3,1.3,2.3,2.9,2.8,4.6
				c0.5,1.6,0.8,3.3,0.8,5c0.1,2.6-0.5,5.2-1.6,7.6c-1.3,2.2-3.2,4-5.5,5.2l9.5,19.9h-10.6l-7.9-17.5h-9.2v17.6h-9.6V163z
				 M216.9,184.2c1.3,0,2.6-0.1,3.8-0.5c0.9-0.3,1.7-0.7,2.4-1.4c0.6-0.6,1-1.3,1.2-2.1c0.2-0.9,0.3-1.8,0.3-2.8
				c0-0.8-0.1-1.6-0.4-2.4c-0.3-0.8-0.7-1.5-1.3-2c-0.8-0.7-1.7-1.1-2.6-1.4c-1.4-0.4-2.8-0.5-4.2-0.5h-6.8v13L216.9,184.2z"/>
			<path class="st1" d="M242.5,163h11.7l11.7,35l12-35h11.4v46.8h-9v-31.2l-10.7,31.2H262l-10.8-31.1v31.1h-8.8L242.5,163z"/>
		</g>
		<g>
			<path class="st1" d="M39.6,227.5H24.1v-5.4h37v5.4H45.7v41.5h-6.1V227.5z"/>
			<path class="st1" d="M67.6,222.1h15.3c2.9-0.1,5.8,0.3,8.6,1.2c2,0.6,3.8,1.7,5.3,3c1.2,1.2,2.1,2.6,2.7,4.2
				c0.5,1.6,0.7,3.2,0.7,4.8c0.1,2.7-0.6,5.3-1.9,7.6c-1.4,2.3-3.6,4-6.1,4.9l9.8,21.1h-6.8l-8.8-19.6c-0.6,0.1-1.2,0.1-1.8,0.2
				c-0.7,0-1.2,0-1.8,0h-9.2v19.4h-6L67.6,222.1z M83.5,244.3c1.7,0,3.5-0.2,5.2-0.6c1.2-0.3,2.3-0.9,3.2-1.8
				c0.8-0.8,1.4-1.7,1.6-2.8c0.3-1.2,0.5-2.4,0.5-3.7c0-1.2-0.2-2.4-0.5-3.5c-0.4-1-1-1.9-1.8-2.6c-1-0.8-2.2-1.4-3.4-1.6
				c-1.8-0.4-3.7-0.6-5.5-0.6h-9.2v17.1H83.5z"/>
			<path class="st1" d="M108.5,222.1h6v28.3c0,4.9,0.9,8.5,2.7,10.9s4.8,3.6,9,3.6c4.2,0,7.2-1.2,9-3.6s2.7-6,2.7-10.8v-28.3h6v28.3
				c0.1,3-0.3,6.1-1.2,9c-0.7,2.3-1.9,4.4-3.5,6.1c-1.5,1.6-3.5,2.9-5.6,3.5c-2.4,0.8-4.9,1.1-7.4,1.1c-5.6,0-10-1.6-13.1-4.7
				c-3.1-3.1-4.6-8.2-4.6-15.3L108.5,222.1z"/>
			<path class="st1" d="M157.8,255.6c0.5,3.3,1.8,5.6,3.9,7.1c2.1,1.5,5.2,2.2,9.3,2.2c1.7,0,3.5-0.2,5.1-0.7c1.2-0.4,2.4-1,3.3-1.8
				c0.8-0.7,1.4-1.7,1.8-2.7c0.4-1,0.5-2.1,0.5-3.2c0-0.9-0.1-1.8-0.3-2.7c-0.2-0.9-0.7-1.7-1.3-2.3c-0.7-0.8-1.6-1.4-2.6-1.8
				c-1.4-0.6-2.8-1-4.3-1.2l-5.9-1c-2.1-0.3-4.2-0.9-6.2-1.6c-1.7-0.6-3.2-1.4-4.6-2.5c-1.2-1-2.2-2.3-2.8-3.8c-0.7-1.8-1-3.7-1-5.6
				c0-2,0.4-3.9,1.3-5.6c0.9-1.6,2.1-3,3.6-4.1c1.6-1.1,3.5-2,5.5-2.4c2.2-0.5,4.5-0.8,6.8-0.8c2.6-0.1,5.2,0.3,7.8,1
				c1.9,0.6,3.6,1.5,5.1,2.7c1.3,1.1,2.3,2.4,3,3.9c0.7,1.4,1.2,2.9,1.5,4.5l-5.6,1.1c-0.3-1.2-0.8-2.4-1.3-3.5
				c-0.5-1-1.3-1.9-2.2-2.6c-1-0.7-2.1-1.2-3.3-1.5c-1.6-0.4-3.2-0.6-4.8-0.5c-1.8,0-3.6,0.2-5.4,0.6c-1.3,0.3-2.4,0.8-3.5,1.6
				c-0.8,0.6-1.5,1.5-1.9,2.4c-0.4,1-0.6,2-0.6,3c0,1,0.1,2,0.4,3c0.3,0.9,0.8,1.6,1.5,2.2c0.8,0.7,1.7,1.2,2.7,1.6
				c1.3,0.5,2.7,0.8,4.1,1.1l6.6,1.2c4.8,0.9,8.4,2.4,10.7,4.5c2.3,2.1,3.4,5.2,3.4,9.4c0,1.8-0.4,3.6-1.1,5.3
				c-0.7,1.7-1.8,3.1-3.2,4.3c-1.6,1.3-3.4,2.3-5.3,2.9c-2.4,0.7-5,1.1-7.5,1c-2.5,0-5-0.2-7.5-0.8c-2.1-0.5-4.1-1.4-5.9-2.6
				c-1.7-1.2-3-2.7-4-4.5c-1.1-2-1.7-4.3-1.8-6.6L157.8,255.6z"/>
			<path class="st1" d="M207.4,227.5h-15.5v-5.4H229v5.4h-15.5v41.5h-6.1V227.5z"/>
		</g>
	</g>
</g>
</svg>
